<?xml version="1.0" standalone="no"?>
<!DOCTYPE svg PUBLIC "-//W3C//DTD SVG 20010904//EN"
 "http://www.w3.org/TR/2001/REC-SVG-20010904/DTD/svg10.dtd">
<svg version="1.0" xmlns="http://www.w3.org/2000/svg"
 width="270.000000pt" height="270.000000pt" viewBox="0 0 270.000000 270.000000"
 preserveAspectRatio="xMidYMid meet">
<metadata>
Created by potrace 1.14, written by Peter Selinger 2001-2017
</metadata>
<g transform="translate(0.000000,270.000000) scale(0.100000,-0.100000)"
fill="#000000" stroke="none">
<path d="M1220 2694 c-14 -2 -59 -9 -100 -15 -159 -23 -367 -106 -525 -210
-104 -68 -296 -260 -364 -364 -101 -154 -181 -352 -212 -525 -20 -109 -17
-373 4 -482 56 -281 190 -524 400 -725 192 -183 413 -298 675 -350 120 -24
384 -24 504 0 484 96 881 447 1032 910 46 142 60 239 60 417 0 192 -15 285
-73 449 -72 206 -180 370 -345 528 -184 177 -417 298 -666 348 -73 15 -341 28
-390 19z m-710 -1114 l0 -60 -50 0 -50 0 0 -55 0 -55 45 0 45 0 0 -55 0 -55
-45 0 -45 0 0 -125 0 -125 -80 0 -80 0 0 295 0 295 130 0 130 0 0 -60z m190
-175 l0 -235 50 0 50 0 0 -60 0 -60 -125 0 -125 0 0 295 0 295 75 0 75 0 0
-235z m390 175 l0 -60 -50 0 -50 0 0 -55 0 -55 50 0 50 0 0 -55 0 -55 -50 0
-50 0 0 -65 0 -65 55 0 55 0 0 -60 0 -60 -135 0 -135 0 0 295 0 295 130 0 130
0 0 -60z m360 0 l0 -60 -45 0 -45 0 0 -235 0 -235 -80 0 -80 0 0 235 0 235
-45 0 -45 0 0 60 0 60 170 0 170 0 0 -60z m204 -65 l41 -120 3 123 3 122 64 0
65 0 0 -295 0 -295 -70 0 -69 0 -36 118 c-20 64 -38 122 -40 127 -2 6 -4 -47
-4 -117 l-1 -128 -65 0 -65 0 0 295 0 296 67 -3 66 -3 41 -120z m386 -170 l0
-295 -75 0 -75 0 0 295 0 295 75 0 75 0 0 -295z m199 220 l15 -70 16 70 17 70
65 3 65 3 -27 -130 -28 -131 39 -152 c21 -84 39 -159 39 -165 0 -9 -20 -13
-70 -13 l-69 0 -10 38 c-5 20 -16 66 -23 102 l-13 65 -15 -100 -15 -100 -76
-3 -77 -3 29 165 29 165 -28 131 -29 131 76 -3 75 -3 15 -70z"/>
</g>
</svg>
